<?xml version="1.0" standalone="no"?><!DOCTYPE svg PUBLIC "-//W3C//DTD SVG 1.1//EN" "http://www.w3.org/Graphics/SVG/1.1/DTD/svg11.dtd"><svg t="1600912124919" class="icon" viewBox="0 0 1024 1024" version="1.1" xmlns="http://www.w3.org/2000/svg" p-id="973" width="128" height="128" xmlns:xlink="http://www.w3.org/1999/xlink"><defs><style type="text/css"></style></defs><path d="M512 0c409.6 0 512 102.4 512 512S921.6 1024 512 1024 0 921.6 0 512 102.4 0 512 0z" fill="#D4F3FE" p-id="974"></path><path d="M125.987109 547.108571c0 219.650926 178.058971 397.715749 397.715748 397.715749 219.650926 0 397.715749-178.058971 397.715749-397.715749 0-219.650926-178.058971-397.715749-397.715749-397.715748-219.650926 0-397.715749 178.058971-397.715748 397.715748z" fill="#BFEEFF" p-id="975"></path><path d="M114.284251 512c0 219.650926 178.058971 397.715749 397.715749 397.715749 219.650926 0 397.715749-178.058971 397.715749-397.715749 0-219.650926-178.058971-397.715749-397.715749-397.715749-219.650926 0-397.715749 178.058971-397.715749 397.715749z" fill="#2B86DB" p-id="976"></path><path d="M230.856411 512c0 155.273509 125.87008 281.143589 281.143589 281.143589 155.273509 0 281.143589-125.87008 281.143589-281.143589 0-155.273509-125.87008-281.143589-281.143589-281.143589-155.273509 0-281.143589 125.87008-281.143589 281.143589z" fill="#43AEF7" p-id="977"></path><path d="M348.5696 512a163.4304 163.4304 0 1 0 326.8608 0c0-90.258286-73.172114-163.4304-163.4304-163.4304-90.258286 0-163.4304 73.172114-163.4304 163.4304z" fill="#5ECFFB" p-id="978"></path><path d="M465.14176 512a46.85824 46.85824 0 1 0 93.71648 0 46.85824 46.85824 0 0 0-93.71648 0z" fill="#FFFFFF" p-id="979"></path><path d="M823.272594 263.238217L488.301714 541.754514l-5.991863-7.20896 334.976732-278.510445z" fill="#FFFFFF" p-id="980"></path></svg>